<svg xmlns="http://www.w3.org/2000/svg" viewBox="0 0 1460.69 553.86"><defs><style>.cls-1{fill:#fff;}</style></defs><g id="Layer_2" data-name="Layer 2"><g id="Layer_1-2" data-name="Layer 1"><polygon class="cls-1" points="491.01 553.86 491.01 333.89 348.95 333.89 262.53 540.77 178.07 379.06 34.7 479.23 34.7 553.86 491.01 553.86"/><path class="cls-1" d="M491,282.17V0H34.7V26.84S104.09,110,241.58,147.3,480.54,254.67,491,282.17Z"/><path class="cls-1" d="M0,89c61.84,95.21,107.35,186,92.31,260.56l110-32.08,64.16,163L330.62,311l151.23,2C424.23,241.51,336,202.32,229.14,182.66,140.62,172.15,65.1,139.48,0,89Z"/><path class="cls-1" d="M632,238.53q-23.16,0-35.83-17.38t-12.67-42.08q0-25.11,12.84-41.91t36.58-16.8q24,0,36.21,17.94t12.21,41q0,24.94-12.59,42.08T632,238.53Zm.76-96.25q-21.13,0-21.13,37.13t21.13,37.2q20.44,0,20.45-37.12T632.75,142.28Z"/><path class="cls-1" d="M729.62,194.19v42.58h-27.3V122.13h45.19q15.12,0,23.14,3.23T785,136.91q6.3,8.31,6.3,20.41a42.6,42.6,0,0,1-3.36,16.54,29.68,29.68,0,0,1-9.49,12.68,34.75,34.75,0,0,1-11.88,6.14q-5.76,1.5-18,1.51Zm-.92-20.83h17.46q10,0,14-4.62a15.62,15.62,0,0,0,4-10.58q0-7-4.49-11.09T746.08,143H728.7Z"/><path class="cls-1" d="M882.21,122.13V144.8H853.83v92H826.62v-92H798.06V122.13Z"/><path class="cls-1" d="M924,122.13V236.77H897.16V122.13Z"/><path class="cls-1" d="M1001.2,236.77l-28.29-93.48v93.48H950.4V122.13h41.82l20.12,68.61,21.17-68.61h42V236.77h-27V143.29l-28.83,93.48Z"/><path class="cls-1" d="M1158.07,122.13,1194,236.77h-28.87l-7.06-23.6H1121l-7.19,23.6h-23.55L1127,122.13ZM1127.41,192h24.29l-12-40.22Z"/><path class="cls-1" d="M1237,214.09h45.6v22.68h-72.81V122.13H1237Z"/><path class="cls-1" d="M668.07,341.57l-22.84,7.64q-4.61-13.6-19.52-13.61-15.93,0-15.92,10.33a9.26,9.26,0,0,0,3,7q3,2.87,13.46,5,17.52,3.54,25.66,7.15a32.92,32.92,0,0,1,13.71,11.63,30.67,30.67,0,0,1,5.58,17.93q0,15.54-12,26.87t-35.45,11.33q-17.62,0-30-8t-16.32-23.81l24.86-5.62q4.2,16,23.3,16,9.23,0,13.75-3.57t4.53-8.53a8.89,8.89,0,0,0-4.11-7.81q-4.11-2.76-15.85-5.21-21.9-4.53-31.2-12.39t-9.31-23a34.09,34.09,0,0,1,11.11-25.79q11.12-10.49,30.17-10.49Q658.42,314.61,668.07,341.57Z"/><path class="cls-1" d="M735.22,432.77q-23.16,0-35.84-17.38t-12.67-42.08q0-25.11,12.84-41.91t36.59-16.79q24,0,36.21,17.93t12.21,41q0,24.94-12.59,42.08T735.22,432.77Zm.75-96.24q-21.12,0-21.12,37.12T736,410.85q20.44,0,20.45-37.12T736,336.53Z"/><path class="cls-1" d="M832.76,408.33h45.6V431H805.55V316.37h27.21Z"/><path class="cls-1" d="M984.77,316.37v71.39q0,17.3-3.95,25.74t-14.57,13.86q-10.62,5.42-27.17,5.41t-26.33-4.87a32.65,32.65,0,0,1-14.65-13.85q-4.87-9-4.87-26.29V316.37h29.14v71.39q0,9.24,1.55,13.6a12.7,12.7,0,0,0,6.22,6.93,23.48,23.48,0,0,0,11.46,2.56q7.56,0,12.3-2.52a12.57,12.57,0,0,0,6.3-6.67q1.56-4.16,1.56-13.9V316.37Z"/><path class="cls-1" d="M1082.19,316.37v22.68H1053.8v92h-27.21v-92H998V316.37Z"/><path class="cls-1" d="M1123.92,316.37V431h-26.79V316.37Z"/><path class="cls-1" d="M1193.42,432.77q-23.16,0-35.83-17.38t-12.67-42.08q0-25.11,12.83-41.91t36.59-16.79q24,0,36.21,17.93t12.21,41q0,24.94-12.59,42.08T1193.42,432.77Zm.75-96.24q-21.12,0-21.12,37.12t21.12,37.2q20.46,0,20.45-37.12T1194.17,336.53Z"/><path class="cls-1" d="M1351.93,316.37V431H1329l-44.86-77.43c0,2,.11,3.24.17,3.86a45.63,45.63,0,0,1,.33,4.95V431h-20.91V316.37h29l39,67.61q-.5-5-.5-7.64v-60Z"/><path class="cls-1" d="M1457.58,341.57l-22.84,7.64q-4.6-13.6-19.52-13.61-15.93,0-15.92,10.33a9.26,9.26,0,0,0,3,7q3,2.87,13.46,5,17.52,3.54,25.66,7.15a32.92,32.92,0,0,1,13.71,11.63,30.67,30.67,0,0,1,5.58,17.93q0,15.54-12,26.87t-35.45,11.33q-17.62,0-30-8T1367,400.94l24.86-5.62q4.2,16,23.3,16,9.23,0,13.75-3.57t4.53-8.53a8.89,8.89,0,0,0-4.11-7.81q-4.11-2.76-15.85-5.21-21.9-4.53-31.2-12.39t-9.31-23A34.09,34.09,0,0,1,1384,325.1q11.12-10.49,30.17-10.49Q1447.93,314.61,1457.58,341.57Z"/></g></g></svg>